<?xml version="1.0" encoding="UTF-8"?>
<svg width="56px" height="56px" viewBox="0 0 56 56" version="1.1" xmlns="http://www.w3.org/2000/svg" xmlns:xlink="http://www.w3.org/1999/xlink">
    <title>编组 3备份 5</title>
    <g id="页面-1" stroke="none" stroke-width="1" fill="none" fill-rule="evenodd">
        <g id="编组-3备份-5">
            <rect id="矩形" x="0" y="0" width="56" height="56"></rect>
            <g id="编组" transform="translate(2.870662, 2.333333)" fill="#FFFFFF">
                <polygon id="Fill-1" points="5.67195603 42.8718298 5.67195603 46.2852822 1.84955597 46.2852822 1.84955597 42.8718298 0.15672124 42.8718298 0.15672124 51.3333333 1.84955597 51.3333333 1.84955597 47.8969736 5.67195603 47.8969736 5.67195603 51.3333333 7.36466866 51.3333333 7.36466866 42.8718298"></polygon>
                <g>
                    <path d="M15.316634,47.5965869 C15.316634,48.9694478 14.6348177,49.7023321 13.3971178,49.7023321 C12.1520028,49.7023321 11.4662318,48.9486918 11.4662318,47.5382725 L11.4662318,42.7694589 L9.75285476,42.7694589 L9.75285476,47.5965869 C9.75285476,49.9714188 11.0727384,51.3332839 13.3741311,51.3332839 C15.6975218,51.3332839 17.0298875,49.945968 17.0298875,47.5267826 L17.0298875,42.764517 L15.316634,42.764517 L15.316634,47.5965869 Z" id="Fill-2"></path>
                    <polygon id="Fill-4" points="35.1196223 48.5697713 33.2020834 42.7632815 31.8038471 42.7632815 29.8865555 48.5697713 28.0211693 42.7682234 26.1975548 42.7682234 29.1403516 51.2071418 30.5594737 51.2071418 32.4797314 45.6635613 34.3996183 51.2071418 35.830481 51.2071418 38.7662335 42.7682234 36.9893339 42.7682234"></polygon>
                    <polygon id="Fill-6" points="41.8380897 47.5737924 44.95477 47.5737924 44.95477 46.0359955 41.8380897 46.0359955 41.8380897 44.3079353 46.3619044 44.3079353 46.3619044 42.7701384 40.1476993 42.7701384 40.1476993 51.201644 46.524789 51.201644 46.524789 49.6639706 41.8380897 49.6639706"></polygon>
                    <polygon id="Fill-8" points="48.5682852 51.1954542 50.2586756 51.1954542 50.2586756 42.7639487 48.5682852 42.7639487"></polygon>
                    <path d="M22.3449033,44.9008649 L23.6443955,47.922592 L21.0538149,47.922592 L22.3449033,44.9008649 Z M24.2813506,49.4446983 L25.0396658,51.2020393 L26.8355974,51.2020393 L23.1301599,42.7644799 L21.6188437,42.7644799 L17.8984525,51.2020393 L19.647422,51.2020393 L20.416489,49.4446983 L24.2813506,49.4446983 Z" id="Fill-10"></path>
                    <path d="M7.69222964,6.66625752 C7.69222964,6.66625752 3.34007391,10.6664815 3.61838646,14.9889176 C3.74629653,18.1010815 6.16027478,20.0399139 6.16027478,20.0399139 C10.0211817,23.7206438 19.1855986,28.4399148 21.3898538,29.5334345 C21.4800706,29.5781588 21.5679392,29.5512254 21.6156429,29.5110724 C21.6854682,29.4522638 21.6740984,29.3394648 21.6433258,29.2723785 C15.7618105,16.4378838 7.69222964,6.66625752 7.69222964,6.66625752 M19.0091198,0.475040498 C14.9156267,1.47046346 13.9059404,5.23668831 13.9059404,5.23668831 C13.1943402,7.21406755 13.9307809,10.1327559 13.9307809,10.1327559 C15.2894701,16.1623727 21.9797231,26.0770671 23.4466725,28.1966496 C23.5015441,28.2747317 23.5815033,28.3047537 23.6649229,28.2826387 C23.7181879,28.2685543 23.7809689,28.2267952 23.7923387,28.1102898 C26.0163674,5.8892667 21.4407706,0 21.4407706,0 C20.188117,0.176673059 19.0091198,0.475040498 19.0091198,0.475040498 M20.0157165,32.5754234 C16.1580228,32.7098432 4.55540499,33.1138438 4.55540499,33.1138438 C8.02257131,39.0690849 12.0144779,37.7088259 12.0144779,37.7088259 C14.1738718,37.100354 18.6546791,33.968299 20.1320096,32.9088784 C20.225316,32.8419156 20.2038123,32.7218273 20.1792189,32.6732731 C20.1475813,32.6112522 20.069105,32.5735702 20.0157165,32.5754234 M20.3574279,31.081733 C13.5718912,26.5108427 0.445104355,19.463935 0.445104355,19.463935 C-0.727590036,23.0028323 0.787804487,26.0324664 0.787804487,26.0324664 C2.4872165,29.7464306 5.75825403,30.7863307 5.75825403,30.7863307 C7.22792225,31.3503255 8.41730056,31.3975206 8.41730056,31.3975206 C8.64889813,31.4405152 17.8469301,31.4295195 20.27648,31.4259366 C20.3579223,31.4254424 20.4188495,31.3679928 20.4367693,31.3036245 C20.4703843,31.1823007 20.4071089,31.1153379 20.3574279,31.081733 M49.7986195,19.463935 C49.7986195,19.463935 36.6719563,26.5108427 29.8862959,31.081733 C29.8366149,31.1153379 29.7733396,31.1823007 29.8070782,31.3036245 C29.8248744,31.3679928 29.8859252,31.4254424 29.967491,31.4259366 C32.3967937,31.4295195 41.5949493,31.4405152 41.8265469,31.3975206 C41.8265469,31.3975206 43.0159252,31.3503255 44.4855934,30.7863307 C44.4855934,30.7863307 47.7566309,29.7464306 49.4559194,26.0324664 C49.4559194,26.0324664 50.9714375,23.0028323 49.7986195,19.463935 M30.0646285,32.6732731 C30.0400352,32.7218273 30.0185315,32.8419156 30.1118378,32.9088784 C31.5892919,33.968299 36.0699756,37.100354 38.2293696,37.7088259 C38.2293696,37.7088259 42.2211525,39.0690849 45.6884424,33.1138438 C45.6884424,33.1138438 34.0858247,32.7098432 30.228131,32.5754234 C30.1746188,32.5735702 30.0962662,32.6112522 30.0646285,32.6732731 M36.3379071,5.23668831 C36.3379071,5.23668831 35.3282208,1.47046346 31.2347276,0.475040498 C31.2347276,0.475040498 30.0557304,0.176673059 28.8030768,0 C28.8030768,0 24.2274801,5.8892667 26.4513852,28.1102898 C26.462755,28.2267952 26.5256595,28.2685543 26.5789245,28.2826387 C26.6623441,28.3047537 26.7421798,28.2747317 26.7971749,28.1966496 C28.2640007,26.0770671 34.9542537,16.1623727 36.312943,10.1327559 C36.312943,10.1327559 37.0493837,7.21406755 36.3379071,5.23668831 M46.625461,14.9889176 C46.9037735,10.6664815 42.5516178,6.66625752 42.5516178,6.66625752 C42.5516178,6.66625752 34.4819133,16.4378838 28.600398,29.2723785 C28.5696255,29.3394648 28.5583793,29.4522638 28.6282046,29.5110724 C28.6759082,29.5512254 28.7636533,29.5781588 28.8538701,29.5334345 C31.0582488,28.4399148 40.2226658,23.7206438 44.0835727,20.0399139 C44.0835727,20.0399139 46.4975509,18.1010815 46.625461,14.9889176" id="Fill-11"></path>
                </g>
            </g>
        </g>
    </g>
</svg>