<?xml version="1.0" encoding="UTF-8"?>
<svg width="32px" height="32px" viewBox="0 0 32 32" version="1.1" xmlns="http://www.w3.org/2000/svg" xmlns:xlink="http://www.w3.org/1999/xlink">
    <title>ic_safe</title>
    <defs>
        <path d="M16,7.33333333 C18.209139,7.33333333 20,9.12419433 20,11.3333333 C20,13.5424723 18.209139,15.3333333 16,15.3333333 C13.790861,15.3333333 12,13.5424723 12,11.3333333 C12,9.12419433 13.790861,7.33333333 16,7.33333333 Z M15.8966667,2.33333333 C15.8667067,2.33114122 15.8366266,2.33114122 15.8066667,2.33333333 L15.7866667,2.33333333 L5.22,7.22333333 C5.10269602,7.27452539 5.02057421,7.38317885 5.00333333,7.51 L5.00333333,14.8433333 C5.00333333,14.9566667 5.00333333,15.07 5.02,15.2333333 L5.06,15.8533333 C5.30760298,19.3716311 6.69017015,22.7145896 9,25.38 L9,20.3333333 C9,18.1241943 10.790861,16.3333333 13,16.3333333 L19,16.3333333 C21.209139,16.3333333 23,18.1241943 23,20.3333333 L23,25.2566667 C25.3077608,22.6338327 26.697944,19.3303923 26.96,15.8466667 C26.9833333,15.5133333 26.9966667,15.21 27.0000324,14.93 L27.0000324,7.52666667 C27.0016728,7.40238721 26.9385274,7.28619969 26.8333333,7.22 L26.8,7.20333333 L16.02,2.36 C15.9809616,2.34333991 15.9391006,2.33428888 15.8966667,2.33333333 Z M15.8966667,0.333328419 C16.222028,0.332925922 16.5436973,0.402261004 16.84,0.536666667 L27.62,5.37666667 C28.4616753,5.76086617 29.0012131,6.60145042 29,7.52666667 L29,14.79 C29,15.19 29,15.5866667 28.9533333,15.9833333 C28.44,23.3333284 23.2366667,29.9233333 16.4466667,31.6 C16.0842559,31.6888568 15.7057441,31.6888568 15.3433333,31.6 C8.55333333,29.9233333 3.57666667,23.3333284 3.06333333,16 L3.03,15.5233333 C3,15.27 3,15.03 3,14.79 L3,7.54666667 C3.00617181,6.61873788 3.55332277,5.77977308 4.4,5.4 L14.95,0.536666667 C15.2473911,0.401992565 15.5702037,0.332656056 15.8966667,0.333328419 Z" id="path-1"></path>
    </defs>
    <g id="ic_safe" stroke="none" stroke-width="1" fill="none" fill-rule="evenodd">
        <mask id="mask-2" fill="white">
            <use xlink:href="#path-1"></use>
        </mask>
        <use id="形状" fill="#0A59F7" xlink:href="#path-1"></use>
    </g>
</svg>